<svg width="18" height="15" viewBox="0 0 18 15" fill="none" xmlns="http://www.w3.org/2000/svg">
<path d="M8.99613 9.1051L9.24544 9.10625C12.6172 9.13792 14.5333 9.82571 14.5333 11.7283C14.5333 13.5861 12.7017 14.2975 9.48843 14.361L8.99613 14.3658C5.46923 14.3658 3.45897 13.6916 3.45897 11.7426C3.45897 9.79129 5.47729 9.1051 8.99613 9.1051ZM8.99613 10.3318C6.14465 10.3318 4.6857 10.8278 4.6857 11.7426C4.6857 12.6509 6.1414 13.139 8.99613 13.139C11.8468 13.139 13.3066 12.6426 13.3066 11.7283C13.3066 10.8201 11.8504 10.3318 8.99613 10.3318ZM14.7559 8.59558C15.1827 8.62501 15.6024 8.6856 15.9951 8.77423C16.8693 8.94538 17.5263 9.27317 17.8315 9.91266C18.0562 10.3851 18.0562 10.9344 17.8315 11.4081C17.5285 12.0452 16.8825 12.3685 16.0008 12.5498C15.669 12.618 15.3447 12.4044 15.2764 12.0726C15.2082 11.7407 15.4219 11.4164 15.7537 11.3482C16.2872 11.2385 16.637 11.0634 16.7234 10.8818C16.7899 10.7416 16.7899 10.5787 16.724 10.4402C16.6365 10.2568 16.2837 10.0807 15.7426 9.97456C15.3946 9.89625 15.0367 9.84458 14.6715 9.8194C14.3336 9.79609 14.0785 9.50323 14.1018 9.16529C14.1251 8.82734 14.418 8.57227 14.7559 8.59558ZM3.89807 9.16529C3.92138 9.50323 3.66631 9.79609 3.32836 9.8194C3.05448 9.83828 2.78471 9.87207 2.51305 9.92231L2.24053 9.9781C1.71641 10.0807 1.36396 10.2566 1.27646 10.4405C1.21018 10.5792 1.21018 10.7411 1.27729 10.8819C1.36343 11.0635 1.71294 11.2386 2.24623 11.3482C2.57804 11.4164 2.79171 11.7407 2.72348 12.0726C2.65524 12.4044 2.33095 12.618 1.99914 12.5498C1.11701 12.3684 0.471119 12.045 0.169406 11.4086C-0.0564291 10.9349 -0.0564292 10.3846 0.169169 9.91259C0.452961 9.31597 1.0442 8.99056 1.81918 8.81348L1.98802 8.77777C2.39756 8.6856 2.81724 8.62501 3.24396 8.59558C3.58191 8.57227 3.87476 8.82734 3.89807 9.16529ZM8.99613 0.5C11.0861 0.5 12.7648 2.17873 12.7648 4.2687C12.7648 6.35928 11.0862 8.03815 8.99613 8.03815C6.90603 8.03815 5.22743 6.35928 5.22743 4.2687C5.22743 2.17873 6.90617 0.5 8.99613 0.5ZM13.6226 1.27028C15.2719 1.27028 16.6094 2.60725 16.6094 4.25633C16.6094 5.90541 15.2719 7.24238 13.6226 7.24238C13.2839 7.24238 13.0092 6.96777 13.0092 6.62902C13.0092 6.29027 13.2839 6.01566 13.6226 6.01566C14.5945 6.01566 15.3827 5.22779 15.3827 4.25633C15.3827 3.28487 14.5945 2.497 13.6226 2.497C13.2839 2.497 13.0092 2.22239 13.0092 1.88364C13.0092 1.54489 13.2839 1.27028 13.6226 1.27028ZM4.3773 1.27028C4.71605 1.27028 4.99066 1.54489 4.99066 1.88364C4.99066 2.22239 4.71605 2.497 4.3773 2.497C3.40543 2.497 2.61722 3.28487 2.61722 4.25633C2.61722 5.22779 3.40543 6.01566 4.3773 6.01566C4.71605 6.01566 4.99066 6.29027 4.99066 6.62902C4.99066 6.96777 4.71605 7.24238 4.3773 7.24238C2.72805 7.24238 1.3905 5.90541 1.3905 4.25633C1.3905 2.60725 2.72805 1.27028 4.3773 1.27028ZM8.99613 1.72672C7.58367 1.72672 6.45416 2.85623 6.45416 4.2687C6.45416 5.68182 7.58357 6.81142 8.99613 6.81142C10.4087 6.81142 11.5381 5.68182 11.5381 4.2687C11.5381 2.85623 10.4086 1.72672 8.99613 1.72672Z" fill="#2D3A4F"/>
</svg>
