<svg width="10" height="7" viewBox="0 0 10 7" fill="none" xmlns="http://www.w3.org/2000/svg">
<path d="M4.02813 6.67734C3.98015 6.63817 3.77498 6.49025 3.60621 6.35246C2.54478 5.54464 0.807447 3.43729 0.277146 2.3343C0.191934 2.16679 0.0115822 1.7433 0 1.51703C0 1.30021 0.0595658 1.09353 0.180352 0.896301C0.349122 0.650443 0.614686 0.453216 0.928233 0.345147C1.14581 0.275577 1.7969 0.167508 1.80848 0.167508C2.52079 0.0594382 3.67819 0 4.95719 0C6.17581 0 7.28605 0.0594382 8.00911 0.14792C8.02069 0.158052 8.8298 0.266121 9.10694 0.384322C9.61325 0.601137 9.92763 1.02463 9.92763 1.47785V1.51703C9.91522 1.81219 9.60084 2.43291 9.58926 2.43291C9.05813 3.47646 7.40601 5.53518 6.30818 6.36259C6.30818 6.36259 6.02607 6.59562 5.84985 6.69693C5.5967 6.85498 5.28315 6.93333 4.9696 6.93333C4.61966 6.93333 4.2937 6.84485 4.02813 6.67734Z" fill="#FEF6E9"/>
</svg>
