<svg width="8" height="11" viewBox="0 0 8 11" fill="none" xmlns="http://www.w3.org/2000/svg">
<path d="M0.752344 6.40235C0.791519 6.45033 0.939439 6.6555 1.07723 6.82427C1.88505 7.8857 3.9924 9.62303 5.09539 10.1533C5.26289 10.2385 5.68639 10.4189 5.91266 10.4305C6.12948 10.4305 6.33616 10.3709 6.53339 10.2501C6.77924 10.0814 6.97647 9.8158 7.08454 9.50225C7.15411 9.28467 7.26218 8.63358 7.26218 8.622C7.37025 7.90969 7.42969 6.7523 7.42969 5.47329C7.42969 4.25467 7.37025 3.14443 7.28177 2.42137C7.27164 2.40979 7.16357 1.60068 7.04537 1.32354C6.82855 0.817229 6.40505 0.502854 5.95184 0.502854H5.91266C5.6175 0.515264 4.99677 0.829639 4.99677 0.841221C3.95323 1.37235 1.8945 3.02447 1.0671 4.1223C1.0671 4.1223 0.834071 4.40441 0.732756 4.58063C0.574705 4.83378 0.496354 5.14733 0.496354 5.46088C0.496354 5.81083 0.584836 6.13678 0.752344 6.40235Z" fill="#FEF6E9"/>
</svg>
