<svg width="16" height="17" viewBox="0 0 16 17" fill="none" xmlns="http://www.w3.org/2000/svg">
<path d="M4.81078 9.25588C6.12682 9.25588 7.19138 10.33 7.19138 11.6531V14.1036C7.19138 15.426 6.12666 16.5 4.81078 16.5H2.38059C1.06471 16.5 0 15.426 0 14.1036V11.6531C0 10.33 1.06456 9.25588 2.38059 9.25588H4.81078ZM13.6202 9.25588C14.9356 9.25588 16 10.3301 16 11.6531V14.1036C16 15.4259 14.9354 16.5 13.6202 16.5H11.1892C9.87334 16.5 8.80862 15.426 8.80862 14.1036V11.6531C8.80862 10.33 9.87318 9.25588 11.1892 9.25588H13.6202ZM4.81078 10.3722H2.38059C1.68331 10.3722 1.11628 10.9443 1.11628 11.6531V14.1036C1.11628 14.8117 1.68339 15.3837 2.38059 15.3837H4.81078C5.50799 15.3837 6.0751 14.8117 6.0751 14.1036V11.6531C6.0751 10.9443 5.50807 10.3722 4.81078 10.3722ZM13.6202 10.3722H11.1892C10.4919 10.3722 9.9249 10.9443 9.9249 11.6531V14.1036C9.9249 14.8117 10.492 15.3837 11.1892 15.3837H13.6202C14.3167 15.3837 14.8837 14.8116 14.8837 14.1036V11.6531C14.8837 10.9444 14.3168 10.3722 13.6202 10.3722ZM13.6202 0.5C14.9354 0.5 16 1.57411 16 2.89641V5.3477C16 6.66947 14.9352 7.74412 13.6202 7.74412H11.1892C9.87356 7.74412 8.80862 6.66962 8.80862 5.3477V2.89641C8.80862 1.57396 9.87334 0.5 11.1892 0.5H13.6202ZM4.81078 0.5C6.12666 0.5 7.19138 1.57396 7.19138 2.89641V5.3477C7.19138 6.66962 6.12644 7.74412 4.81078 7.74412H2.38059C1.06494 7.74412 0 6.66962 0 5.3477V2.89641C0 1.57396 1.06471 0.5 2.38059 0.5H4.81078ZM13.6202 1.61628H11.1892C10.492 1.61628 9.9249 2.18831 9.9249 2.89641V5.3477C9.9249 6.05534 10.4923 6.62784 11.1892 6.62784H13.6202C14.3164 6.62784 14.8837 6.05526 14.8837 5.3477V2.89641C14.8837 2.18839 14.3167 1.61628 13.6202 1.61628ZM4.81078 1.61628H2.38059C1.68339 1.61628 1.11628 2.18831 1.11628 2.89641V5.3477C1.11628 6.05534 1.68369 6.62784 2.38059 6.62784H4.81078C5.50769 6.62784 6.0751 6.05534 6.0751 5.3477V2.89641C6.0751 2.18831 5.50799 1.61628 4.81078 1.61628Z" fill="#2D3A4F"/>
</svg>
