<svg width="18" height="19" viewBox="0 0 18 19" fill="none" xmlns="http://www.w3.org/2000/svg">
<path d="M6.64613 0.5C7.47615 0.5 8.25773 0.891307 8.75527 1.55557L9.54885 2.61243C9.80152 2.94838 10.1969 3.1463 10.6156 3.14714H13.0766C16.4795 3.14714 18 4.93046 18 8.57353L17.9762 12.8944C17.9762 16.3713 15.8503 18.5 12.378 18.5H5.60614C2.12716 18.5 0 16.3725 0 12.8944V6.10562C0 2.4579 1.55692 0.5 4.90752 0.5H6.64613ZM6.64613 1.80632H4.90752C2.3511 1.80632 1.30459 3.12235 1.30459 6.10562V12.8944C1.30459 15.6507 2.84733 17.1937 5.60614 17.1937H12.378C15.1298 17.1937 16.6716 15.6498 16.6716 12.8908L16.6954 8.56992C16.6954 5.61013 15.7092 4.45346 13.0766 4.45346L10.6143 4.45346C9.78545 4.45181 9.00534 4.06124 8.50642 3.39789L7.71207 2.33999C7.46043 2.00404 7.06552 1.80632 6.64613 1.80632ZM13.156 11.1363C13.5163 11.1363 13.8083 11.4287 13.8083 11.7894C13.8083 12.1201 13.5629 12.3934 13.2445 12.4366L13.156 12.4426H4.81226C4.452 12.4426 4.15996 12.1501 4.15996 11.7894C4.15996 11.4587 4.40536 11.1855 4.72374 11.1422L4.81226 11.1363H8.98413H13.156Z" fill="#2D3A4F"/>
</svg>
