<svg width="18" height="19" viewBox="0 0 18 19" fill="none" xmlns="http://www.w3.org/2000/svg">
<path d="M17.3266 11.9585C17.6984 11.9585 18 12.2601 18 12.6319C18 12.6429 17.9608 13.1388 17.9211 13.6614L17.8974 13.9745C17.8744 14.2835 17.8538 14.5691 17.8442 14.7324C17.7929 15.5769 17.4652 16.4385 16.9673 17.0381C16.2741 17.8736 15.3908 18.2644 14.1898 18.2671C14.1692 18.2671 14.1461 18.2672 14.1208 18.2672L12.9408 18.268C12.8811 18.2681 12.8199 18.2681 12.7573 18.2681H5.29407C5.23147 18.2681 5.17029 18.2681 5.11062 18.268L3.93099 18.2672L3.86207 18.2671C2.66012 18.2644 1.7769 17.8736 1.08364 17.0372C0.586657 16.4385 0.258035 15.5769 0.207617 14.7324C0.197713 14.5691 0.177005 14.2835 0.153797 13.9745L0.130062 13.6614C0.09014 13.1388 0.0509589 12.6429 0.0509589 12.6319C0.0509589 12.2601 0.35257 11.9585 0.724408 11.9585C1.07824 11.9585 1.36004 12.234 1.38705 12.5797C1.38705 12.5797 1.5257 14.1544 1.55542 14.6513C1.58873 15.2015 1.81201 15.8002 2.12353 16.1747C2.56469 16.7068 3.05267 16.9148 3.86387 16.9166C3.89101 16.9166 3.92231 16.9167 3.95756 16.9167L5.45853 16.9175C5.54404 16.9175 5.63188 16.9176 5.72185 16.9176H12.3286C12.4186 16.9176 12.5064 16.9175 12.592 16.9175L14.0933 16.9167L14.1871 16.9166C14.9992 16.9148 15.4872 16.7068 15.9274 16.1756C16.2398 15.8002 16.4631 15.2015 16.4964 14.6513C16.5253 14.1544 16.6639 12.5797 16.6639 12.5797C16.6909 12.234 16.9727 11.9585 17.3266 11.9585ZM8.99892 11.8749C9.37166 11.8749 9.67417 12.1774 9.67417 12.5501V13.7152C9.67417 14.0879 9.37166 14.3904 8.99892 14.3904C8.62618 14.3904 8.32367 14.0879 8.32367 13.7152V12.5501C8.32367 12.1774 8.62618 11.8749 8.99892 11.8749ZM10.1612 0.5C11.5135 0.5 12.6218 1.51738 12.7901 2.82376H14.5701C16.4599 2.82376 17.9977 4.36153 17.9977 6.25223V9.37368C17.9977 9.60057 17.8842 9.81125 17.6951 9.93729C15.8387 11.1653 13.6355 11.9837 11.3226 12.3043C11.292 12.3088 11.2605 12.3106 11.2299 12.3106C10.9246 12.3106 10.6527 12.1035 10.5753 11.801C10.3934 11.0843 9.74341 10.5837 8.99433 10.5837C8.23715 10.5837 7.59341 11.0735 7.39264 11.8046C7.3026 12.1323 6.99019 12.343 6.64806 12.2953C4.35131 11.9747 2.1572 11.1599 0.303412 9.93729C0.113442 9.81215 0 9.60057 0 9.37368V6.25223C0 4.36153 1.54137 2.82376 3.43657 2.82376H5.20753C5.37679 1.51648 6.4842 0.5 7.8365 0.5H10.1612ZM14.5701 4.17426H3.43657C2.28685 4.17426 1.3505 5.107 1.3505 6.25223V9.00455C2.82885 9.92019 4.52778 10.5612 6.31224 10.8754C6.82002 9.88417 7.85091 9.23323 8.99433 9.23323C10.1477 9.23323 11.174 9.88687 11.6674 10.8835C13.4627 10.5675 15.1679 9.92379 16.6472 9.00455V6.25223C16.6472 5.107 15.7153 4.17426 14.5701 4.17426ZM10.1612 1.8505H7.8365C7.23058 1.8505 6.72459 2.26555 6.57333 2.82376H11.4234C11.2731 2.26555 10.7662 1.8505 10.1612 1.8505Z" fill="#2D3A4F"/>
</svg>
