<svg width="22" height="21" viewBox="0 0 22 21" fill="none" xmlns="http://www.w3.org/2000/svg">
<path d="M9.55263 0C11.9941 0 13.9869 1.92298 14.0988 4.33685L14.1037 4.55107V5.50849C14.1037 5.93354 13.7591 6.27812 13.3341 6.27812C12.9444 6.27812 12.6224 5.98858 12.5715 5.61292L12.5644 5.50849V4.55107C12.5644 2.94727 11.3104 1.63599 9.72958 1.54437L9.55263 1.53926H4.55005C2.94711 1.53926 1.63598 2.79338 1.54437 4.37414L1.53926 4.55107V15.9724C1.53926 17.576 2.79314 18.8874 4.37319 18.9791L4.55005 18.9842H9.56289C11.161 18.9842 12.468 17.7347 12.5594 16.1599L12.5644 15.9837V15.016C12.5644 14.5909 12.909 14.2463 13.3341 14.2463C13.7237 14.2463 14.0457 14.5359 14.0967 14.9115L14.1037 15.016V15.9837C14.1037 18.4169 12.188 20.4035 9.78286 20.5182L9.56289 20.5234H4.55005C2.10935 20.5234 0.11682 18.6003 0.00495351 16.1866L0 15.9724V4.55107C0 2.10975 1.9228 0.116842 4.33589 0.00495445L4.55005 0H9.55263ZM17.7569 6.65048L17.8434 6.7248L20.8481 9.71609C20.8751 9.74294 20.8989 9.77026 20.9206 9.79916L20.8481 9.71609C20.8794 9.7473 20.9075 9.78054 20.9324 9.81538C20.9499 9.83976 20.9661 9.86551 20.9807 9.89223C20.9834 9.89743 20.9861 9.90253 20.9888 9.90765C21.0017 9.93225 21.0133 9.95778 21.0234 9.98399C21.0276 9.99547 21.0317 10.0071 21.0356 10.0188C21.0431 10.0403 21.0494 10.0626 21.0547 10.0851C21.0572 10.0972 21.0597 10.1092 21.0619 10.1212C21.0661 10.1422 21.0692 10.1638 21.0713 10.1857C21.0725 10.201 21.0735 10.2161 21.0741 10.2312C21.0748 10.2413 21.075 10.2514 21.075 10.2616L21.0741 10.2907C21.0736 10.3065 21.0725 10.3223 21.0709 10.338L21.075 10.2616C21.075 10.3097 21.0706 10.3567 21.0622 10.4024C21.0597 10.4137 21.0572 10.4258 21.0544 10.4378C21.0492 10.4615 21.0426 10.4846 21.035 10.5072C21.0311 10.5177 21.0273 10.5283 21.0232 10.5388C21.0137 10.5644 21.0026 10.5891 20.9903 10.6131C20.9872 10.6185 20.984 10.6246 20.9807 10.6306C20.9453 10.6956 20.9011 10.7543 20.8496 10.8058L20.8482 10.8068L17.8435 13.7992C17.5424 14.0991 17.0551 14.0981 16.7551 13.7969C16.4824 13.5231 16.4585 13.0955 16.6826 12.7947L16.7573 12.7085L18.4393 11.0303L7.94924 11.0312C7.52419 11.0312 7.17961 10.6867 7.17961 10.2616C7.17961 9.87198 7.46915 9.54998 7.84481 9.49901L7.94924 9.49199L18.4413 9.49106L16.7574 7.81564C16.4836 7.54301 16.4578 7.1155 16.6807 6.81371L16.755 6.72722C17.0276 6.45338 17.4552 6.42759 17.7569 6.65048Z" fill="#FEF6E9"/>
</svg>
