<svg width="24" height="20" viewBox="0 0 24 20" fill="none" xmlns="http://www.w3.org/2000/svg">
<path d="M21.6679 0.254336C21.9812 0.562622 22.0097 1.04504 21.7534 1.38499L21.6679 1.48238L3.11027 19.7457C2.76569 20.0848 2.20702 20.0848 1.86244 19.7457C1.54918 19.4374 1.5207 18.955 1.777 18.615L1.86244 18.5176L4.18249 16.2359C2.51336 14.7366 1.11361 12.7324 0.0715461 10.3433C-0.0241042 10.1241 -0.0238376 9.87569 0.0722832 9.6566C1.27878 6.9066 2.95358 4.66355 4.96301 3.10825C6.997 1.52402 9.34488 0.676971 11.7647 0.676971C13.9473 0.676971 16.0659 1.36795 17.9632 2.67113L20.4201 0.254336C20.7647 -0.0847786 21.3233 -0.0847786 21.6679 0.254336ZM21.232 5.83554C22.0859 6.95194 22.8321 8.23355 23.4569 9.65556C23.5535 9.87531 23.5536 10.1245 23.4572 10.3444C21.0133 15.9164 16.6288 19.3229 11.7647 19.3229C10.6574 19.3229 9.56177 19.1467 8.50655 18.8001C8.0443 18.6483 7.79464 18.1564 7.94891 17.7015C8.10318 17.2466 8.60297 17.0009 9.06521 17.1527C9.94086 17.4403 10.8479 17.5862 11.7647 17.5862C15.6525 17.5862 19.2718 14.9252 21.4973 10.388L21.6805 10.0016L21.6182 9.86419C21.1704 8.91576 20.6641 8.04583 20.1056 7.2637L19.8221 6.87999C19.529 6.49683 19.6071 5.95241 19.9964 5.66399C20.3858 5.37557 20.9389 5.45237 21.232 5.83554ZM11.7647 2.41369C9.75324 2.41369 7.78814 3.12264 6.05605 4.47172C4.39743 5.75549 2.97582 7.60084 1.90243 9.88284L1.84753 10.0016L1.90089 10.118C2.83383 12.1117 4.03598 13.7694 5.4312 15.0058L7.94604 12.5303C7.43831 11.7947 7.16 10.9235 7.16 10.0014C7.16 7.49225 9.21613 5.46741 11.7647 5.46741C12.6966 5.46741 13.5912 5.74322 14.3371 6.24053L16.693 3.92203C15.1546 2.93003 13.4782 2.41369 11.7647 2.41369ZM15.4548 9.78334L15.5741 9.79639C16.0537 9.88128 16.3726 10.3327 16.2863 10.8047C15.9482 12.6549 14.4696 14.1129 12.5908 14.4486C12.1113 14.5342 11.6521 14.2212 11.565 13.7493C11.478 13.2774 11.7961 12.8255 12.2756 12.7398C13.4297 12.5336 14.3417 11.6343 14.5495 10.4973C14.6285 10.0647 15.0206 9.7649 15.4548 9.78334ZM11.7647 7.20412C10.191 7.20412 8.92471 8.45116 8.92471 10.0014C8.92471 10.453 9.03142 10.8818 9.23154 11.2654L13.0514 7.50645C12.6611 7.31076 12.2208 7.20412 11.7647 7.20412Z" fill="#FEF6E9"/>
</svg>
