<svg width="12" height="12" viewBox="0 0 12 12" fill="none" xmlns="http://www.w3.org/2000/svg">
<path d="M9.74242 7.2319C10.9876 7.2319 11.9998 8.22178 11.9998 9.43946C11.9998 10.6565 10.9876 11.647 9.74242 11.647C8.49726 11.647 7.48504 10.6565 7.48504 9.43946C7.48504 8.22178 8.49726 7.2319 9.74242 7.2319ZM9.74242 8.26734C9.08102 8.26734 8.54385 8.79266 8.54385 9.43946C8.54385 10.0856 9.08102 10.6116 9.74242 10.6116C10.4038 10.6116 10.941 10.0856 10.941 9.43946C10.941 8.79266 10.4038 8.26734 9.74242 8.26734ZM4.87029 8.92153C5.16252 8.92153 5.39969 9.15347 5.39969 9.43925C5.39969 9.72504 5.16252 9.95697 4.87029 9.95697H0.529897C0.237666 9.95697 0.000494109 9.72504 0.000494109 9.43925C0.000494109 9.15347 0.237666 8.92153 0.529897 8.92153H4.87029ZM2.25737 0.352905C3.50253 0.352905 4.51474 1.34348 4.51474 2.56047C4.51474 3.77746 3.50253 4.76803 2.25737 4.76803C1.01292 4.76803 0 3.77746 0 2.56047C0 1.34348 1.01292 0.352905 2.25737 0.352905ZM2.25737 1.38835C1.59668 1.38835 1.0588 1.91435 1.0588 2.56047C1.0588 3.20658 1.59668 3.73259 2.25737 3.73259C2.91877 3.73259 3.45594 3.20658 3.45594 2.56047C3.45594 1.91435 2.91877 1.38835 2.25737 1.38835ZM11.4706 2.04288C11.7628 2.04288 12 2.27482 12 2.56061C12 2.84639 11.7628 3.07833 11.4706 3.07833H7.1295C6.83727 3.07833 6.6001 2.84639 6.6001 2.56061C6.6001 2.27482 6.83727 2.04288 7.1295 2.04288H11.4706Z" fill="#FEF6E9"/>
</svg>
