<svg width="16" height="17" viewBox="0 0 16 17" fill="none" xmlns="http://www.w3.org/2000/svg">
<path d="M8.77442 0.5L8.90217 0.501364C9.81715 0.545277 10.5994 1.21979 10.8989 2.22003C10.9824 2.53894 11.0295 2.85084 11.0844 3.35858L11.1574 4.02398C11.2243 4.7251 11.2598 6.35937 11.2639 8.05092L11.2639 8.72852C11.2594 10.5325 11.2193 12.2688 11.1434 12.8745L11.0464 13.7702C11.008 14.0723 10.9642 14.3047 10.8925 14.5713C10.583 15.6047 9.72909 16.2971 8.78484 16.2686C8.30422 16.2804 7.71891 16.0359 7.31174 15.6935L4.10372 13.0874L2.45229 13.0878C1.23656 13.0878 0.36955 12.271 0.156667 11.0252L0.132634 10.8603C-0.0468446 9.57776 -0.0415565 7.24855 0.132628 5.85149C0.307231 4.60316 1.21994 3.68159 2.45229 3.68159L4.10282 3.68108L7.23085 1.13204C7.60955 0.811251 8.1747 0.547399 8.63399 0.505372L8.77442 0.5ZM8.78793 1.8511L8.75367 1.85123C8.64456 1.84888 8.29403 2.00296 8.09472 2.17163L4.7704 4.88133C4.64979 4.97964 4.49897 5.03332 4.34337 5.03332H2.45229C1.94069 5.03332 1.5579 5.41983 1.47266 6.0287C1.31397 7.30201 1.30895 9.51268 1.47293 10.6853C1.55832 11.3893 1.90493 11.7361 2.45229 11.7361H4.34337C4.49856 11.7361 4.64901 11.7895 4.76947 11.8873L8.17273 14.6515C8.35396 14.8038 8.63248 14.9202 8.78793 14.9173C9.1237 14.9271 9.45546 14.6581 9.59225 14.2024C9.66341 13.9369 9.70046 13.6887 9.74637 13.2323L9.77634 12.9354L9.80193 12.7086C9.94946 11.5299 9.94946 5.23946 9.80168 4.05874L9.70566 3.20262C9.68302 3.02195 9.66101 2.87882 9.63656 2.75609L9.59767 2.58518C9.45544 2.11082 9.12324 1.84131 8.78793 1.8511ZM14.4927 3.10869C15.4626 4.50385 16 6.32193 16 8.27297C16 10.2238 15.4628 12.041 14.4927 13.4363C14.2796 13.7428 13.8584 13.8185 13.5519 13.6054C13.2454 13.3923 13.1697 12.9711 13.3828 12.6647C14.1908 11.5025 14.6483 9.95521 14.6483 8.27297C14.6483 6.59049 14.1907 5.04231 13.3828 3.88032C13.1697 3.57384 13.2454 3.15266 13.5519 2.93958C13.8584 2.7265 14.2796 2.80221 14.4927 3.10869Z" fill="#2D3A4F"/>
</svg>
